<svg width="196" height="34" viewBox="0 0 196 34" fill="none" xmlns="http://www.w3.org/2000/svg">
<g clip-path="url(#clip0_130_2153)">
<g clip-path="url(#clip1_130_2153)">
<path d="M16.1454 1.91522L18.6187 6.92139C18.7902 7.26853 19.0435 7.56887 19.3566 7.79665C19.6698 8.02445 20.0334 8.17288 20.4165 8.22922L25.9477 9.03189C26.3893 9.09553 26.8042 9.28152 27.1455 9.56881C27.4868 9.85609 27.7409 10.2332 27.8789 10.6574C28.017 11.0817 28.0335 11.5361 27.9266 11.9692C27.8197 12.4024 27.5938 12.7969 27.2742 13.1082L23.2714 17.0049C22.9937 17.2752 22.7859 17.609 22.666 17.9775C22.5462 18.3459 22.5176 18.7381 22.583 19.12L23.528 24.622C23.6028 25.0617 23.5532 25.5137 23.3848 25.9267C23.2163 26.3397 22.9358 26.6974 22.5749 26.9596C22.2139 27.2216 21.7869 27.3776 21.3421 27.4098C20.8972 27.4421 20.4521 27.3493 20.0572 27.142L15.1105 24.545C14.7671 24.3647 14.3849 24.2704 13.997 24.2704C13.6089 24.2704 13.2268 24.3647 12.8834 24.545L7.93669 27.142C7.54136 27.3497 7.09581 27.4424 6.65047 27.4099C6.20513 27.3773 5.77779 27.2208 5.41682 26.9579C5.05587 26.6951 4.7757 26.3364 4.60805 25.9226C4.44039 25.5087 4.39195 25.0561 4.46819 24.6162L5.41319 19.1142C5.47868 18.7322 5.45023 18.3401 5.33031 17.9716C5.21039 17.6031 5.0026 17.2693 4.72486 16.999L0.722024 13.1082C0.402472 12.7969 0.176461 12.4024 0.0695806 11.9692C-0.0372992 11.5361 -0.0207781 11.0817 0.117273 10.6574C0.255325 10.2332 0.509392 9.85609 0.850709 9.56881C1.19203 9.28152 1.60695 9.09553 2.04853 9.03189L7.58319 8.22922C7.96612 8.1728 8.32963 8.02432 8.64256 7.79653C8.95548 7.56875 9.20849 7.26845 9.37986 6.92139L11.8544 1.91522C12.0524 1.51533 12.3581 1.17872 12.7372 0.943377C13.1164 0.708036 13.5536 0.583328 13.9999 0.583328C14.446 0.583328 14.8834 0.708036 15.2624 0.943377C15.6416 1.17872 15.9474 1.51533 16.1454 1.91522Z" fill="#EAEAEA"/>
</g>
<g clip-path="url(#clip2_130_2153)">
<path d="M56.1454 1.91522L58.6187 6.92139C58.7902 7.26853 59.0435 7.56887 59.3566 7.79665C59.6698 8.02445 60.0334 8.17288 60.4165 8.22922L65.9477 9.03189C66.3893 9.09553 66.8042 9.28152 67.1455 9.56881C67.4868 9.85609 67.7409 10.2332 67.8789 10.6574C68.017 11.0817 68.0335 11.5361 67.9266 11.9692C67.8197 12.4024 67.5938 12.7969 67.2742 13.1082L63.2714 17.0049C62.9937 17.2752 62.7859 17.609 62.666 17.9775C62.5462 18.3459 62.5176 18.7381 62.583 19.12L63.528 24.622C63.6028 25.0617 63.5532 25.5137 63.3848 25.9267C63.2163 26.3397 62.9358 26.6974 62.5749 26.9596C62.2139 27.2216 61.7869 27.3776 61.3421 27.4098C60.8972 27.4421 60.4521 27.3493 60.0572 27.142L55.1105 24.545C54.7671 24.3647 54.3849 24.2704 53.997 24.2704C53.6089 24.2704 53.2268 24.3647 52.8834 24.545L47.9367 27.142C47.5414 27.3497 47.0958 27.4424 46.6505 27.4099C46.2051 27.3773 45.7778 27.2208 45.4168 26.9579C45.0559 26.6951 44.7757 26.3364 44.6081 25.9226C44.4404 25.5087 44.392 25.0561 44.4682 24.6162L45.4132 19.1142C45.4787 18.7322 45.4502 18.3401 45.3303 17.9716C45.2104 17.6031 45.0026 17.2693 44.7249 16.999L40.722 13.1082C40.4025 12.7969 40.1765 12.4024 40.0696 11.9692C39.9627 11.5361 39.9792 11.0817 40.1173 10.6574C40.2553 10.2332 40.5094 9.85609 40.8507 9.56881C41.192 9.28152 41.607 9.09553 42.0485 9.03189L47.5832 8.22922C47.9661 8.1728 48.3296 8.02432 48.6426 7.79653C48.9555 7.56875 49.2085 7.26845 49.3799 6.92139L51.8544 1.91522C52.0524 1.51533 52.3581 1.17872 52.7372 0.943377C53.1164 0.708036 53.5536 0.583328 53.9999 0.583328C54.446 0.583328 54.8834 0.708036 55.2624 0.943377C55.6416 1.17872 55.9474 1.51533 56.1454 1.91522Z" fill="#EAEAEA"/>
</g>
<g clip-path="url(#clip3_130_2153)">
<path d="M96.1454 1.91522L98.6187 6.92139C98.7902 7.26853 99.0435 7.56887 99.3566 7.79665C99.6698 8.02445 100.033 8.17288 100.417 8.22922L105.948 9.03189C106.389 9.09553 106.804 9.28152 107.146 9.56881C107.487 9.85609 107.741 10.2332 107.879 10.6574C108.017 11.0817 108.033 11.5361 107.927 11.9692C107.82 12.4024 107.594 12.7969 107.274 13.1082L103.271 17.0049C102.994 17.2752 102.786 17.609 102.666 17.9775C102.546 18.3459 102.518 18.7381 102.583 19.12L103.528 24.622C103.603 25.0617 103.553 25.5137 103.385 25.9267C103.216 26.3397 102.936 26.6974 102.575 26.9596C102.214 27.2216 101.787 27.3776 101.342 27.4098C100.897 27.4421 100.452 27.3493 100.057 27.142L95.1105 24.545C94.7671 24.3647 94.3849 24.2704 93.997 24.2704C93.6089 24.2704 93.2268 24.3647 92.8834 24.545L87.9367 27.142C87.5414 27.3497 87.0958 27.4424 86.6505 27.4099C86.2051 27.3773 85.7778 27.2208 85.4168 26.9579C85.0559 26.6951 84.7757 26.3364 84.6081 25.9226C84.4404 25.5087 84.392 25.0561 84.4682 24.6162L85.4132 19.1142C85.4787 18.7322 85.4502 18.3401 85.3303 17.9716C85.2104 17.6031 85.0026 17.2693 84.7249 16.999L80.722 13.1082C80.4025 12.7969 80.1765 12.4024 80.0696 11.9692C79.9627 11.5361 79.9792 11.0817 80.1173 10.6574C80.2553 10.2332 80.5094 9.85609 80.8507 9.56881C81.192 9.28152 81.607 9.09553 82.0485 9.03189L87.5832 8.22922C87.9661 8.1728 88.3296 8.02432 88.6426 7.79653C88.9555 7.56875 89.2085 7.26845 89.3799 6.92139L91.8544 1.91522C92.0524 1.51533 92.3581 1.17872 92.7372 0.943377C93.1164 0.708036 93.5536 0.583328 93.9999 0.583328C94.446 0.583328 94.8834 0.708036 95.2624 0.943377C95.6416 1.17872 95.9474 1.51533 96.1454 1.91522Z" fill="#EAEAEA"/>
</g>
<g clip-path="url(#clip4_130_2153)">
<path d="M136.145 1.91522L138.619 6.92139C138.79 7.26853 139.043 7.56887 139.357 7.79665C139.67 8.02445 140.033 8.17288 140.417 8.22922L145.948 9.03189C146.389 9.09553 146.804 9.28152 147.146 9.56881C147.487 9.85609 147.741 10.2332 147.879 10.6574C148.017 11.0817 148.033 11.5361 147.927 11.9692C147.82 12.4024 147.594 12.7969 147.274 13.1082L143.271 17.0049C142.994 17.2752 142.786 17.609 142.666 17.9775C142.546 18.3459 142.518 18.7381 142.583 19.12L143.528 24.622C143.603 25.0617 143.553 25.5137 143.385 25.9267C143.216 26.3397 142.936 26.6974 142.575 26.9596C142.214 27.2216 141.787 27.3776 141.342 27.4098C140.897 27.4421 140.452 27.3493 140.057 27.142L135.111 24.545C134.767 24.3647 134.385 24.2704 133.997 24.2704C133.609 24.2704 133.227 24.3647 132.883 24.545L127.937 27.142C127.541 27.3497 127.096 27.4424 126.65 27.4099C126.205 27.3773 125.778 27.2208 125.417 26.9579C125.056 26.6951 124.776 26.3364 124.608 25.9226C124.44 25.5087 124.392 25.0561 124.468 24.6162L125.413 19.1142C125.479 18.7322 125.45 18.3401 125.33 17.9716C125.21 17.6031 125.003 17.2693 124.725 16.999L120.722 13.1082C120.402 12.7969 120.176 12.4024 120.07 11.9692C119.963 11.5361 119.979 11.0817 120.117 10.6574C120.255 10.2332 120.509 9.85609 120.851 9.56881C121.192 9.28152 121.607 9.09553 122.049 9.03189L127.583 8.22922C127.966 8.1728 128.33 8.02432 128.643 7.79653C128.955 7.56875 129.208 7.26845 129.38 6.92139L131.854 1.91522C132.052 1.51533 132.358 1.17872 132.737 0.943377C133.116 0.708036 133.554 0.583328 134 0.583328C134.446 0.583328 134.883 0.708036 135.262 0.943377C135.642 1.17872 135.947 1.51533 136.145 1.91522Z" fill="#EAEAEA"/>
</g>
<g clip-path="url(#clip5_130_2153)">
<path d="M176.145 1.91522L178.619 6.92139C178.79 7.26853 179.043 7.56887 179.357 7.79665C179.67 8.02445 180.033 8.17288 180.417 8.22922L185.948 9.03189C186.389 9.09553 186.804 9.28152 187.146 9.56881C187.487 9.85609 187.741 10.2332 187.879 10.6574C188.017 11.0817 188.033 11.5361 187.927 11.9692C187.82 12.4024 187.594 12.7969 187.274 13.1082L183.271 17.0049C182.994 17.2752 182.786 17.609 182.666 17.9775C182.546 18.3459 182.518 18.7381 182.583 19.12L183.528 24.622C183.603 25.0617 183.553 25.5137 183.385 25.9267C183.216 26.3397 182.936 26.6974 182.575 26.9596C182.214 27.2216 181.787 27.3776 181.342 27.4098C180.897 27.4421 180.452 27.3493 180.057 27.142L175.111 24.545C174.767 24.3647 174.385 24.2704 173.997 24.2704C173.609 24.2704 173.227 24.3647 172.883 24.545L167.937 27.142C167.541 27.3497 167.096 27.4424 166.65 27.4099C166.205 27.3773 165.778 27.2208 165.417 26.9579C165.056 26.6951 164.776 26.3364 164.608 25.9226C164.44 25.5087 164.392 25.0561 164.468 24.6162L165.413 19.1142C165.479 18.7322 165.45 18.3401 165.33 17.9716C165.21 17.6031 165.003 17.2693 164.725 16.999L160.722 13.1082C160.402 12.7969 160.176 12.4024 160.07 11.9692C159.963 11.5361 159.979 11.0817 160.117 10.6574C160.255 10.2332 160.509 9.85609 160.851 9.56881C161.192 9.28152 161.607 9.09553 162.049 9.03189L167.583 8.22922C167.966 8.1728 168.33 8.02432 168.643 7.79653C168.955 7.56875 169.208 7.26845 169.38 6.92139L171.854 1.91522C172.052 1.51533 172.358 1.17872 172.737 0.943377C173.116 0.708036 173.554 0.583328 174 0.583328C174.446 0.583328 174.883 0.708036 175.262 0.943377C175.642 1.17872 175.947 1.51533 176.145 1.91522Z" fill="#EAEAEA"/>
</g>
<g clip-path="url(#clip6_130_2153)">
<g clip-path="url(#clip7_130_2153)">
<path d="M16.1454 1.91522L18.6187 6.92139C18.7902 7.26853 19.0435 7.56887 19.3566 7.79665C19.6698 8.02445 20.0334 8.17288 20.4165 8.22922L25.9477 9.03189C26.3893 9.09553 26.8042 9.28152 27.1455 9.56881C27.4868 9.85609 27.7409 10.2332 27.8789 10.6574C28.017 11.0817 28.0335 11.5361 27.9266 11.9692C27.8197 12.4024 27.5938 12.7969 27.2742 13.1082L23.2714 17.0049C22.9937 17.2752 22.7859 17.609 22.666 17.9775C22.5462 18.3459 22.5176 18.7381 22.583 19.12L23.528 24.622C23.6028 25.0617 23.5532 25.5137 23.3848 25.9267C23.2163 26.3397 22.9358 26.6974 22.5749 26.9596C22.2139 27.2216 21.7869 27.3776 21.3421 27.4098C20.8972 27.4421 20.4521 27.3493 20.0572 27.142L15.1105 24.545C14.7671 24.3647 14.3849 24.2704 13.997 24.2704C13.6089 24.2704 13.2268 24.3647 12.8834 24.545L7.93669 27.142C7.54136 27.3497 7.09581 27.4424 6.65047 27.4099C6.20513 27.3773 5.77779 27.2208 5.41682 26.9579C5.05587 26.6951 4.7757 26.3364 4.60805 25.9226C4.44039 25.5087 4.39195 25.0561 4.46819 24.6162L5.41319 19.1142C5.47868 18.7322 5.45023 18.3401 5.33031 17.9716C5.21039 17.6031 5.0026 17.2693 4.72486 16.999L0.722024 13.1082C0.402472 12.7969 0.176461 12.4024 0.0695806 11.9692C-0.0372992 11.5361 -0.0207781 11.0817 0.117273 10.6574C0.255325 10.2332 0.509392 9.85609 0.850709 9.56881C1.19203 9.28152 1.60695 9.09553 2.04853 9.03189L7.58319 8.22922C7.96612 8.1728 8.32963 8.02432 8.64256 7.79653C8.95548 7.56875 9.20849 7.26845 9.37986 6.92139L11.8544 1.91522C12.0524 1.51533 12.3581 1.17872 12.7372 0.943377C13.1164 0.708036 13.5536 0.583328 13.9999 0.583328C14.446 0.583328 14.8834 0.708036 15.2624 0.943377C15.6416 1.17872 15.9474 1.51533 16.1454 1.91522Z" fill="#006FFF"/>
</g>
<g clip-path="url(#clip8_130_2153)">
<path d="M56.1454 1.91522L58.6187 6.92139C58.7902 7.26853 59.0435 7.56887 59.3566 7.79665C59.6698 8.02445 60.0334 8.17288 60.4165 8.22922L65.9477 9.03189C66.3893 9.09553 66.8042 9.28152 67.1455 9.56881C67.4868 9.85609 67.7409 10.2332 67.8789 10.6574C68.017 11.0817 68.0335 11.5361 67.9266 11.9692C67.8197 12.4024 67.5938 12.7969 67.2742 13.1082L63.2714 17.0049C62.9937 17.2752 62.7859 17.609 62.666 17.9775C62.5462 18.3459 62.5176 18.7381 62.583 19.12L63.528 24.622C63.6028 25.0617 63.5532 25.5137 63.3848 25.9267C63.2163 26.3397 62.9358 26.6974 62.5749 26.9596C62.2139 27.2216 61.7869 27.3776 61.3421 27.4098C60.8972 27.4421 60.4521 27.3493 60.0572 27.142L55.1105 24.545C54.7671 24.3647 54.3849 24.2704 53.997 24.2704C53.6089 24.2704 53.2268 24.3647 52.8834 24.545L47.9367 27.142C47.5414 27.3497 47.0958 27.4424 46.6505 27.4099C46.2051 27.3773 45.7778 27.2208 45.4168 26.9579C45.0559 26.6951 44.7757 26.3364 44.6081 25.9226C44.4404 25.5087 44.392 25.0561 44.4682 24.6162L45.4132 19.1142C45.4787 18.7322 45.4502 18.3401 45.3303 17.9716C45.2104 17.6031 45.0026 17.2693 44.7249 16.999L40.722 13.1082C40.4025 12.7969 40.1765 12.4024 40.0696 11.9692C39.9627 11.5361 39.9792 11.0817 40.1173 10.6574C40.2553 10.2332 40.5094 9.85609 40.8507 9.56881C41.192 9.28152 41.607 9.09553 42.0485 9.03189L47.5832 8.22922C47.9661 8.1728 48.3296 8.02432 48.6426 7.79653C48.9555 7.56875 49.2085 7.26845 49.3799 6.92139L51.8544 1.91522C52.0524 1.51533 52.3581 1.17872 52.7372 0.943377C53.1164 0.708036 53.5536 0.583328 53.9999 0.583328C54.446 0.583328 54.8834 0.708036 55.2624 0.943377C55.6416 1.17872 55.9474 1.51533 56.1454 1.91522Z" fill="#006FFF"/>
</g>
<g clip-path="url(#clip9_130_2153)">
<path d="M96.1454 1.91522L98.6187 6.92139C98.7902 7.26853 99.0435 7.56887 99.3566 7.79665C99.6698 8.02445 100.033 8.17288 100.417 8.22922L105.948 9.03189C106.389 9.09553 106.804 9.28152 107.146 9.56881C107.487 9.85609 107.741 10.2332 107.879 10.6574C108.017 11.0817 108.033 11.5361 107.927 11.9692C107.82 12.4024 107.594 12.7969 107.274 13.1082L103.271 17.0049C102.994 17.2752 102.786 17.609 102.666 17.9775C102.546 18.3459 102.518 18.7381 102.583 19.12L103.528 24.622C103.603 25.0617 103.553 25.5137 103.385 25.9267C103.216 26.3397 102.936 26.6974 102.575 26.9596C102.214 27.2216 101.787 27.3776 101.342 27.4098C100.897 27.4421 100.452 27.3493 100.057 27.142L95.1105 24.545C94.7671 24.3647 94.3849 24.2704 93.997 24.2704C93.6089 24.2704 93.2268 24.3647 92.8834 24.545L87.9367 27.142C87.5414 27.3497 87.0958 27.4424 86.6505 27.4099C86.2051 27.3773 85.7778 27.2208 85.4168 26.9579C85.0559 26.6951 84.7757 26.3364 84.6081 25.9226C84.4404 25.5087 84.392 25.0561 84.4682 24.6162L85.4132 19.1142C85.4787 18.7322 85.4502 18.3401 85.3303 17.9716C85.2104 17.6031 85.0026 17.2693 84.7249 16.999L80.722 13.1082C80.4025 12.7969 80.1765 12.4024 80.0696 11.9692C79.9627 11.5361 79.9792 11.0817 80.1173 10.6574C80.2553 10.2332 80.5094 9.85609 80.8507 9.56881C81.192 9.28152 81.607 9.09553 82.0485 9.03189L87.5832 8.22922C87.9661 8.1728 88.3296 8.02432 88.6426 7.79653C88.9555 7.56875 89.2085 7.26845 89.3799 6.92139L91.8544 1.91522C92.0524 1.51533 92.3581 1.17872 92.7372 0.943377C93.1164 0.708036 93.5536 0.583328 93.9999 0.583328C94.446 0.583328 94.8834 0.708036 95.2624 0.943377C95.6416 1.17872 95.9474 1.51533 96.1454 1.91522Z" fill="#006FFF"/>
</g>
<g clip-path="url(#clip10_130_2153)">
<path d="M136.145 1.91522L138.619 6.92139C138.79 7.26853 139.043 7.56887 139.357 7.79665C139.67 8.02445 140.033 8.17288 140.417 8.22922L145.948 9.03189C146.389 9.09553 146.804 9.28152 147.146 9.56881C147.487 9.85609 147.741 10.2332 147.879 10.6574C148.017 11.0817 148.033 11.5361 147.927 11.9692C147.82 12.4024 147.594 12.7969 147.274 13.1082L143.271 17.0049C142.994 17.2752 142.786 17.609 142.666 17.9775C142.546 18.3459 142.518 18.7381 142.583 19.12L143.528 24.622C143.603 25.0617 143.553 25.5137 143.385 25.9267C143.216 26.3397 142.936 26.6974 142.575 26.9596C142.214 27.2216 141.787 27.3776 141.342 27.4098C140.897 27.4421 140.452 27.3493 140.057 27.142L135.111 24.545C134.767 24.3647 134.385 24.2704 133.997 24.2704C133.609 24.2704 133.227 24.3647 132.883 24.545L127.937 27.142C127.541 27.3497 127.096 27.4424 126.65 27.4099C126.205 27.3773 125.778 27.2208 125.417 26.9579C125.056 26.6951 124.776 26.3364 124.608 25.9226C124.44 25.5087 124.392 25.0561 124.468 24.6162L125.413 19.1142C125.479 18.7322 125.45 18.3401 125.33 17.9716C125.21 17.6031 125.003 17.2693 124.725 16.999L120.722 13.1082C120.402 12.7969 120.176 12.4024 120.07 11.9692C119.963 11.5361 119.979 11.0817 120.117 10.6574C120.255 10.2332 120.509 9.85609 120.851 9.56881C121.192 9.28152 121.607 9.09553 122.049 9.03189L127.583 8.22922C127.966 8.1728 128.33 8.02432 128.643 7.79653C128.955 7.56875 129.208 7.26845 129.38 6.92139L131.854 1.91522C132.052 1.51533 132.358 1.17872 132.737 0.943377C133.116 0.708036 133.554 0.583328 134 0.583328C134.446 0.583328 134.883 0.708036 135.262 0.943377C135.642 1.17872 135.947 1.51533 136.145 1.91522Z" fill="#006FFF"/>
</g>
<g clip-path="url(#clip11_130_2153)">
<g clip-path="url(#clip12_130_2153)">
<path d="M176.145 1.91522L178.619 6.92139C178.79 7.26853 179.043 7.56887 179.357 7.79665C179.67 8.02445 180.033 8.17288 180.417 8.22922L185.948 9.03189C186.389 9.09553 186.804 9.28152 187.146 9.56881C187.487 9.85609 187.741 10.2332 187.879 10.6574C188.017 11.0817 188.033 11.5361 187.927 11.9692C187.82 12.4024 187.594 12.7969 187.274 13.1082L183.271 17.0049C182.994 17.2752 182.786 17.609 182.666 17.9775C182.546 18.3459 182.518 18.7381 182.583 19.12L183.528 24.622C183.603 25.0617 183.553 25.5137 183.385 25.9267C183.216 26.3397 182.936 26.6974 182.575 26.9596C182.214 27.2216 181.787 27.3776 181.342 27.4098C180.897 27.4421 180.452 27.3493 180.057 27.142L175.111 24.545C174.767 24.3647 174.385 24.2704 173.997 24.2704C173.609 24.2704 173.227 24.3647 172.883 24.545L167.937 27.142C167.541 27.3497 167.096 27.4424 166.65 27.4099C166.205 27.3773 165.778 27.2208 165.417 26.9579C165.056 26.6951 164.776 26.3364 164.608 25.9226C164.44 25.5087 164.392 25.0561 164.468 24.6162L165.413 19.1142C165.479 18.7322 165.45 18.3401 165.33 17.9716C165.21 17.6031 165.003 17.2693 164.725 16.999L160.722 13.1082C160.402 12.7969 160.176 12.4024 160.07 11.9692C159.963 11.5361 159.979 11.0817 160.117 10.6574C160.255 10.2332 160.509 9.85609 160.851 9.56881C161.192 9.28152 161.607 9.09553 162.049 9.03189L167.583 8.22922C167.966 8.1728 168.33 8.02432 168.643 7.79653C168.955 7.56875 169.208 7.26845 169.38 6.92139L171.854 1.91522C172.052 1.51533 172.358 1.17872 172.737 0.943377C173.116 0.708036 173.554 0.583328 174 0.583328C174.446 0.583328 174.883 0.708036 175.262 0.943377C175.642 1.17872 175.947 1.51533 176.145 1.91522Z" fill="#006FFF"/>
</g>
</g>
</g>
</g>
<defs>
<clipPath id="clip0_130_2153">
<rect width="196" height="28" fill="white"/>
</clipPath>
<clipPath id="clip1_130_2153">
<rect width="28" height="28" fill="white"/>
</clipPath>
<clipPath id="clip2_130_2153">
<rect width="28" height="28" fill="white" transform="translate(40)"/>
</clipPath>
<clipPath id="clip3_130_2153">
<rect width="28" height="28" fill="white" transform="translate(80)"/>
</clipPath>
<clipPath id="clip4_130_2153">
<rect width="28" height="28" fill="white" transform="translate(120)"/>
</clipPath>
<clipPath id="clip5_130_2153">
<rect width="28" height="28" fill="white" transform="translate(160)"/>
</clipPath>
<clipPath id="clip6_130_2153">
<rect width="163" height="28" fill="white"/>
</clipPath>
<clipPath id="clip7_130_2153">
<rect width="28" height="28" fill="white"/>
</clipPath>
<clipPath id="clip8_130_2153">
<rect width="28" height="28" fill="white" transform="translate(40)"/>
</clipPath>
<clipPath id="clip9_130_2153">
<rect width="28" height="28" fill="white" transform="translate(80)"/>
</clipPath>
<clipPath id="clip10_130_2153">
<rect width="28" height="28" fill="white" transform="translate(120)"/>
</clipPath>
<clipPath id="clip11_130_2153">
<rect width="162.8" height="28" fill="white"/>
</clipPath>
<clipPath id="clip12_130_2153">
<rect width="28" height="28" fill="white" transform="translate(160)"/>
</clipPath>
</defs>
</svg>
